<?xml version="1.0" standalone="no"?>
<!DOCTYPE svg PUBLIC "-//W3C//DTD SVG 20010904//EN"
 "http://www.w3.org/TR/2001/REC-SVG-20010904/DTD/svg10.dtd">
<svg version="1.0" xmlns="http://www.w3.org/2000/svg"
 width="361.000000pt" height="361.000000pt" viewBox="0 0 361.000000 361.000000"
 preserveAspectRatio="xMidYMid meet">

<g transform="translate(0.000000,361.000000) scale(0.100000,-0.100000)"
fill="#000000" stroke="none">
<path d="M540 3443 c-14 -2 -29 -9 -34 -14 -6 -5 -16 -9 -23 -9 -7 0 -36 -22
-66 -50 -85 -79 -149 -227 -183 -420 -19 -114 -22 -447 -5 -572 30 -212 100
-426 184 -562 76 -124 77 -128 37 -382 -15 -91 -12 -327 4 -435 8 -52 26 -128
40 -169 24 -71 25 -76 8 -88 -9 -7 -28 -15 -42 -18 -70 -15 -171 -69 -222
-118 -71 -68 -116 -150 -124 -228 -11 -105 0 -146 52 -206 l46 -52 71 0 c47 1
79 6 91 15 26 19 45 19 67 -1 25 -23 193 -22 215 1 9 8 20 15 26 15 6 0 26 17
44 37 l33 37 36 -17 c108 -51 225 34 225 163 0 35 3 40 23 40 38 0 231 -29
257 -39 14 -5 45 -15 70 -22 25 -7 52 -19 61 -26 8 -7 19 -13 23 -13 5 0 47
-35 90 -76 6 -5 19 -13 29 -17 9 -3 17 -11 17 -17 0 -5 8 -10 18 -10 10 0 22
-4 28 -9 5 -4 30 -14 57 -21 39 -10 62 -10 125 0 42 7 81 17 86 21 6 5 16 9
23 9 18 0 109 60 145 94 15 14 32 26 38 26 5 0 10 5 10 10 0 22 60 34 195 42
77 4 153 8 170 10 25 3 32 -2 45 -29 18 -38 45 -65 90 -88 32 -17 66 -16 148
0 25 6 32 4 32 -8 0 -19 52 -63 94 -81 60 -25 139 -29 185 -9 22 10 41 21 41
26 0 5 13 -1 28 -12 16 -11 46 -27 68 -36 38 -15 43 -15 85 3 25 11 57 35 72
53 15 19 33 41 40 49 8 9 12 50 12 116 0 92 -2 106 -30 159 -35 69 -130 167
-183 191 -20 9 -59 27 -85 40 -27 13 -58 24 -69 24 -23 0 -23 -5 12 145 19 84
21 113 18 430 l-3 340 36 55 c53 82 104 180 116 225 6 22 18 65 26 95 56 203
87 436 87 656 0 210 -22 335 -89 494 -54 132 -157 210 -273 210 -36 -1 -74 -7
-88 -15 -14 -8 -35 -14 -47 -15 -13 0 -23 -4 -23 -10 0 -5 -7 -10 -15 -10 -34
0 -218 -136 -268 -198 -10 -12 -24 -28 -31 -35 -27 -27 -128 -184 -158 -246
-17 -36 -40 -79 -51 -94 -18 -26 -24 -28 -61 -23 -180 28 -487 37 -816 26
l-145 -5 -65 126 c-97 188 -110 207 -210 309 -66 68 -158 140 -179 140 -6 0
-11 5 -11 10 0 6 -8 10 -19 10 -10 0 -24 7 -31 15 -7 8 -22 15 -34 15 -12 0
-26 4 -32 9 -11 12 -128 22 -164 14z m188 -110 c42 -20 100 -53 128 -74 54
-39 154 -136 154 -149 0 -4 9 -17 20 -30 29 -33 110 -176 110 -194 0 -8 4 -16
8 -18 5 -1 21 -41 36 -88 15 -46 32 -90 38 -97 13 -16 77 -17 115 -2 60 24
169 32 448 32 202 1 305 -3 340 -12 28 -7 74 -17 103 -23 29 -6 55 -15 58 -20
3 -4 19 -8 36 -8 33 0 68 31 68 60 0 38 84 217 140 300 69 100 190 215 270
254 19 9 42 20 50 25 27 16 64 30 104 40 121 31 241 -84 277 -264 4 -22 12
-60 18 -85 22 -101 33 -303 22 -410 -20 -194 -30 -271 -46 -330 -8 -33 -22
-88 -31 -122 -46 -182 -69 -238 -152 -363 -51 -77 -53 -82 -49 -135 37 -449
32 -624 -20 -770 -26 -72 -37 -80 -109 -80 -35 0 -66 -5 -69 -10 -3 -6 -13
-10 -21 -10 -29 0 -105 -41 -135 -73 -29 -30 -79 -119 -79 -140 0 -5 -7 -24
-16 -42 -14 -29 -23 -35 -70 -45 -30 -6 -92 -11 -137 -10 -45 1 -101 -1 -123
-5 -23 -4 -44 -3 -46 1 -8 14 18 244 28 254 5 5 74 11 154 13 146 5 217 13
235 27 6 4 22 10 38 14 15 3 27 11 27 16 0 6 6 10 14 10 19 0 75 65 97 114 20
44 25 139 10 179 -11 30 -49 67 -68 67 -22 0 -53 -33 -53 -58 0 -13 5 -43 11
-67 32 -128 -85 -208 -310 -208 -98 0 -138 7 -211 36 -50 20 -90 42 -90 49 0
5 -9 8 -20 8 -11 0 -20 4 -20 9 0 5 -8 11 -17 14 -10 3 -34 14 -53 25 -19 11
-54 28 -78 37 -48 20 -55 36 -50 110 3 53 2 52 100 96 58 26 98 80 98 133 0
83 -93 126 -271 126 -92 0 -146 -15 -190 -51 -24 -20 -29 -32 -29 -67 0 -24 5
-53 11 -64 18 -34 66 -73 107 -87 73 -26 82 -36 82 -95 0 -68 -7 -86 -32 -86
-11 0 -32 -6 -46 -14 -15 -7 -40 -19 -57 -26 -44 -18 -43 -18 -163 -79 -70
-37 -205 -71 -276 -71 -67 0 -169 22 -210 45 -70 39 -101 123 -72 196 9 21
-31 69 -58 69 -53 0 -76 -139 -37 -225 21 -47 84 -115 106 -115 8 0 15 -3 15
-7 0 -12 79 -40 135 -49 62 -10 116 -9 226 1 118 11 129 4 129 -80 0 -35 4
-74 9 -87 5 -13 10 -44 12 -68 4 -41 2 -45 -19 -48 -13 -2 -33 3 -45 11 -23
15 -43 18 -202 36 -136 16 -141 18 -161 59 -49 107 -123 160 -256 187 -66 13
-84 18 -99 32 -16 14 -56 129 -79 233 -19 80 -15 449 5 515 8 28 15 88 15 136
0 74 -4 93 -26 135 -14 27 -29 51 -33 54 -29 19 -103 204 -141 348 -47 179
-69 463 -51 649 33 342 142 543 293 543 35 0 70 -10 126 -37z m974 -2781 c4
-226 8 -242 66 -242 62 0 66 15 70 248 l4 202 27 0 c16 0 43 -5 62 -11 33 -10
42 -14 101 -37 32 -13 43 -47 34 -100 -3 -20 -11 -68 -16 -105 -15 -100 -67
-183 -141 -222 -30 -16 -180 -34 -200 -24 -8 4 -26 13 -42 20 -98 45 -165 190
-166 357 -1 66 1 74 19 79 11 3 20 9 20 13 0 4 15 10 33 13 17 3 48 10 67 15
20 5 40 5 46 0 8 -6 13 -74 16 -206z m1373 157 c5 -5 16 -9 26 -9 30 0 132
-58 177 -102 24 -23 57 -65 73 -93 26 -45 29 -59 29 -140 0 -91 -6 -112 -49
-155 -33 -34 -93 -51 -106 -30 -3 6 -15 10 -26 10 -10 0 -19 7 -19 15 0 8 -4
15 -9 15 -5 0 -14 14 -21 30 -19 46 -27 45 -55 -10 -24 -48 -27 -50 -68 -51
-72 -3 -111 2 -128 17 -8 8 -19 14 -23 14 -4 0 -13 6 -20 13 -25 25 -34 51
-29 87 3 21 1 40 -5 44 -17 10 -42 -5 -48 -28 -6 -26 -47 -46 -94 -46 -26 0
-46 8 -68 28 -29 26 -32 35 -32 83 1 136 89 281 185 304 100 23 286 26 310 4z
m-2363 -25 c35 -9 67 -20 73 -25 5 -5 17 -9 26 -9 32 0 104 -85 124 -147 9
-32 22 -68 26 -81 5 -13 9 -43 9 -68 0 -39 -5 -51 -34 -80 -26 -26 -42 -34
-70 -34 -50 0 -91 23 -106 60 -21 50 -44 35 -50 -30 -6 -61 -14 -80 -36 -80
-8 0 -14 -4 -14 -10 0 -5 -9 -10 -19 -10 -11 0 -23 -4 -26 -10 -10 -16 -99
-12 -134 6 -33 17 -35 19 -45 66 -9 39 -27 35 -54 -12 -44 -78 -123 -86 -184
-18 -38 43 -47 83 -38 165 9 88 60 173 132 224 27 19 55 40 63 47 7 6 21 12
29 12 9 0 24 5 34 10 23 14 137 37 189 39 23 0 70 -6 105 -15z"/>
<path d="M1020 1743 c-19 -9 -46 -21 -59 -27 -43 -20 -91 -72 -91 -99 0 -40
26 -60 69 -52 20 4 40 11 46 16 5 5 18 9 29 9 11 0 34 5 52 12 26 9 45 9 91
-2 32 -7 62 -17 68 -22 14 -12 69 -10 83 4 7 7 12 21 12 33 0 29 -38 86 -61
92 -10 3 -19 9 -19 14 0 5 -8 9 -18 9 -10 0 -27 7 -38 15 -25 19 -119 18 -164
-2z"/>
<path d="M2354 1716 c-85 -31 -136 -94 -113 -138 10 -19 16 -20 83 -12 104 13
206 9 250 -10 50 -21 76 -20 92 2 34 44 4 99 -73 137 -21 10 -46 22 -55 26
-25 12 -147 9 -184 -5z"/>
<path d="M1675 1641 c-27 -4 -59 -12 -70 -18 -11 -6 -42 -21 -68 -34 -53 -25
-72 -49 -62 -79 8 -26 24 -25 79 4 49 26 113 37 221 38 83 1 125 -7 181 -33
49 -23 68 -24 84 -4 19 23 -9 57 -78 93 -50 25 -76 31 -149 35 -48 3 -110 2
-138 -2z"/>
<path d="M1294 1176 c-8 -35 2 -46 41 -46 39 0 49 11 41 46 -5 20 -13 24 -41
24 -28 0 -36 -4 -41 -24z"/>
<path d="M2152 1188 c-29 -36 -12 -78 32 -78 54 0 74 40 38 73 -22 20 -55 22
-70 5z"/>
<path d="M2456 1161 c-20 -22 -12 -48 17 -53 38 -7 57 2 57 26 0 45 -43 61
-74 27z"/>
<path d="M1008 1159 c-18 -10 -23 -35 -12 -63 8 -22 80 -22 88 0 21 54 -25 93
-76 63z"/>
<path d="M1185 1024 c-9 -9 -14 -23 -11 -31 3 -8 6 -19 6 -24 0 -5 13 -9 30
-9 23 0 31 5 36 25 11 46 -29 71 -61 39z"/>
<path d="M2312 1028 c-30 -30 -2 -72 45 -66 50 6 40 78 -11 78 -12 0 -27 -5
-34 -12z"/>
</g>
</svg>
